# xmcd
#
# Track frame offsets:
#       150
#       9525
#       18708
#       30650
#       43308
#       55490
#       67570
#       80048
#       92250
#       106053
#       118215
#       129293
#       142868
#       156330
#       168050
#       180443
#       192338
#       202273
#       217225
#       228435
#
# Disc length: 3209 seconds
#
# Revision: 0
# Processed by: cddbd v1.4PL0 Copyright (c) Steve Scherf et al.
# Submitted via: WhereIsIt 3.22
#
DISCID=110c8714
DTITLE=Gladys Knight and The Pips - Every beat of my heart
DYEAR=1900
DGENRE=
TTITLE0=Every beat of my heart
TTITLE1=If ever i should fall in love
TTITLE2=Either way i lose
TTITLE3=It hurts so bad
TTITLE4=Letter full of tears
TTITLE5=Why don't you love me
TTITLE6=Maybe baby
TTITLE7=Who knows
TTITLE8=Giving up
TTITLE9=Go away, stay away
TTITLE10=What will become of me
TTITLE11=Queen of tears
TTITLE12=Stop and get a hold of myself
TTITLE13=Tell het you're mine
TTITLE14=Another love
TTITLE15=Lovers always forgive
TTITLE16=Operator
TTITLE17=Guess who
TTITLE18=How do you say goodbye
TTITLE19=Come see about me
EXTD=
EXTT0=
EXTT1=
EXTT2=
EXTT3=
EXTT4=
EXTT5=
EXTT6=
EXTT7=
EXTT8=
EXTT9=
EXTT10=
EXTT11=
EXTT12=
EXTT13=
EXTT14=
EXTT15=
EXTT16=
EXTT17=
EXTT18=
EXTT19=
PLAYORDER=
